<svg xmlns="http://www.w3.org/2000/svg" width="76" height="72" viewBox="0 0 76 72">
  <title>open-curriculum-logo</title>
  <g>
    <path d="M57,36a19.0157,19.0157,0,0,0-6.22667-14.0514,2.49964,2.49964,0,0,0-4.08585,1.20015l-.00576.02114a2.50493,2.50493,0,0,0,.74663,2.50969,13.93492,13.93492,0,0,1,0,20.64085,2.50493,2.50493,0,0,0-.74663,2.50971l.00581.02131a2.49964,2.49964,0,0,0,4.08581,1.20016A19.0154,19.0154,0,0,0,57,36Z"/>
    <path d="M72,36A34.01589,34.01589,0,0,0,54.516,6.29712a2.50552,2.50552,0,0,0-3.64618,1.51613h0a2.48333,2.48333,0,0,0,1.18978,2.82562,28.99487,28.99487,0,0,1,0,50.72174,2.48334,2.48334,0,0,0-1.18991,2.82571l.00013.00048A2.50552,2.50552,0,0,0,54.516,65.70294,34.01536,34.01536,0,0,0,72,36Z"/>
    <path d="M24,36A14.02187,14.02187,0,0,1,35.10993,22.30221a2.51708,2.51708,0,0,0,1.93073-1.78733L41.22566,5.17a2.50346,2.50346,0,0,0-2.3523-3.15784Q38.43814,2.00011,38,2a34,34,0,0,0,0,68q.43814,0,.87335-.01215A2.50346,2.50346,0,0,0,41.22566,66.83l-4.185-15.34489a2.51708,2.51708,0,0,0-1.93073-1.78733A14.02187,14.02187,0,0,1,24,36Z"/>
  </g>
</svg>
