<svg xmlns="http://www.w3.org/2000/svg" width="800" height="800" viewBox="0 0 800 800">
  <title>Artboard 1</title>
  <g>
    <rect x="567.45487" y="542.73819" width="0.23478" height="50.00018" transform="translate(-235.21352 567.62089) rotate(-45)"/>
    <g>
      <path d="M585.38281,214.71729,550.01953,250.064a214.21117,214.21117,0,0,1,23.80273,28.3252l40.93164-28.71582A264.34182,264.34182,0,0,0,585.38281,214.71729Z"/>
      <path d="M604.91016,345.08887l48.30957-12.8916a261.68883,261.68883,0,0,0-15.59863-42.95459l-45.32031,21.12109A211.50771,211.50771,0,0,1,604.91016,345.08887Z"/>
      <path d="M604.043,458.06348a211.59171,211.59171,0,0,1-11.75879,31.60645l45.31641,21.12891a261.75122,261.75122,0,0,0,14.54785-39.10547q.54492-1.9248,1.06152-3.85645l-48.30859-12.89648Q604.48242,456.50928,604.043,458.06348Z"/>
      <path d="M611.29883,381.51123c.53223,6.12549.80176,12.3457.80176,18.4917.001,6.14648-.26953,12.374-.80371,18.50977l49.8125,4.334c.6582-7.57227.99219-15.26074.99121-22.84717,0-7.58057-.333-15.25635-.98926-22.81445Z"/>
      <path d="M653.21973,332.19727l-48.30957,12.8916a211.50771,211.50771,0,0,0-12.60937-34.7251l45.32031-21.12109A261.68883,261.68883,0,0,1,653.21973,332.19727Zm-79.39746-53.80811a214.21117,214.21117,0,0,0-23.80273-28.3252l35.36328-35.34668a264.34182,264.34182,0,0,1,29.37109,34.95605Zm78.32617,193.3042a261.75122,261.75122,0,0,1-14.54785,39.10547l-45.31641-21.12891A211.59171,211.59171,0,0,0,604.043,458.06348q.438-1.55127.8584-3.123L653.21,467.83691Q652.69434,469.769,652.14844,471.69336Zm8.96094-48.84668-49.8125-4.334c.53418-6.13574.80469-12.36328.80371-18.50977,0-6.146-.26953-12.36621-.80176-18.4917l49.8125-4.32617c.65625,7.55811.98926,15.23389.98926,22.81445C662.10156,407.58594,661.76758,415.27441,661.10938,422.84668Z" style="fill: #fff"/>
    </g>
    <path d="M611.29883,381.51123c.53223,6.12549.80176,12.3457.80176,18.4917.001,6.14648-.26953,12.374-.80371,18.50977l49.8125,4.334c.6582-7.57227.99219-15.26074.99121-22.84717,0-7.58057-.333-15.25635-.98926-22.81445Z"/>
    <path d="M604.043,458.06348a211.59171,211.59171,0,0,1-11.75879,31.60645l45.31641,21.12891a261.75122,261.75122,0,0,0,14.54785-39.10547q.54492-1.9248,1.06152-3.85645l-48.30859-12.89648Q604.48242,456.50928,604.043,458.06348Z"/>
    <path d="M573.793,521.65234a214.37589,214.37589,0,0,1-23.81543,28.3252l-26.574-26.574A174.05757,174.05757,0,0,1,400,574.60059c-96.2749,0-174.6001-78.3252-174.6001-174.60059,0-96.2749,78.3252-174.6001,174.6001-174.6001a174.84019,174.84019,0,0,1,123.4422,51.1579l26.54449-26.54449a215.1106,215.1106,0,0,1,23.83557,28.37585l40.93164-28.71582a265.24542,265.24542,0,0,0-29.41217-35.01508l26.49078-26.49078a299.71811,299.71811,0,1,0,.01709,423.68213L585.333,585.333a264.45756,264.45756,0,0,0,29.38379-34.9541Z"/>
    <path d="M573.793,521.65234a214.37589,214.37589,0,0,1-23.81543,28.3252L585.333,585.333a264.45756,264.45756,0,0,0,29.38379-34.9541Z"/>
    <path d="M604.91016,345.08887l48.30957-12.8916a261.68883,261.68883,0,0,0-15.59863-42.95459l-45.32031,21.12109A211.50771,211.50771,0,0,1,604.91016,345.08887Z"/>
  </g>
</svg>
